 <svg  version="1.0" xmlns="http://www.w3.org/2000/svg"  width="318.000000pt" height="342.000000pt" viewBox="0 0 318.000000 342.000000"  preserveAspectRatio="xMidYMid meet">  <g transform="translate(0.000000,342.000000) scale(0.100000,-0.100000)" fill="#ff0095" stroke="none"> <path d="M30 3207 c0 -14 7 -27 15 -31 8 -3 15 -16 15 -30 0 -13 7 -26 15 -30 9 -3 15 -18 15 -34 0 -16 7 -35 15 -42 8 -7 15 -19 15 -27 0 -8 7 -21 15 -29 8 -9 15 -26 15 -38 0 -13 7 -29 15 -36 8 -7 15 -23 15 -35 0 -13 7 -25 15 -29 8 -3 15 -16 15 -29 0 -14 7 -30 15 -37 8 -7 15 -21 15 -32 0 -11 7 -26 15 -34 8 -9 15 -24 15 -33 0 -10 7 -24 15 -31 8 -7 15 -23 15 -35 0 -12 7 -28 15 -35 8 -7 15 -23 15 -35 0 -13 7 -25 15 -29 8 -3 15 -16 15 -30 0 -13 7 -26 15 -30 8 -3 15 -17 15 -31 0 -15 7 -33 15 -41 8 -9 15 -24 15 -34 0 -10 7 -20 15 -24 9 -3 15 -18 15 -40 0 -21 6 -36 15 -40 8 -3 15 -17 15 -31 0 -14 7 -28 15 -31 8 -4 15 -17 15 -30 0 -14 7 -27 15 -30 8 -4 15 -18 15 -34 0 -15 7 -33 15 -40 8 -7 15 -20 15 -30 0 -10 7 -23 15 -30 8 -7 15 -23 15 -35 0 -12 7 -28 15 -35 8 -7 15 -23 15 -37 0 -13 7 -26 15 -29 8 -4 15 -17 15 -30 0 -14 7 -27 15 -30 8 -4 15 -18 15 -34 0 -15 7 -33 15 -40 8 -7 15 -20 15 -30 0 -10 7 -23 15 -30 8 -7 15 -23 15 -35 0 -12 7 -28 15 -35 8 -7 15 -23 15 -37 0 -13 7 -26 15 -29 8 -4 15 -17 15 -30 0 -14 7 -27 15 -30 8 -4 15 -18 15 -34 0 -15 7 -33 15 -40 8 -7 15 -20 15 -30 0 -10 7 -20 15 -24 9 -3 15 -18 15 -34 0 -16 7 -35 15 -42 8 -7 15 -23 15 -35 0 -13 7 -25 15 -29 8 -3 15 -16 15 -30 0 -13 7 -26 15 -30 9 -3 15 -18 15 -34 0 -16 7 -35 15 -42 8 -7 15 -20 15 -29 0 -9 7 -25 15 -35 8 -11 15 -27 15 -37 0 -9 7 -22 15 -29 8 -7 15 -23 15 -35 0 -13 7 -25 15 -29 21 -8 21 -92 0 -100 -8 -3 -15 -16 -15 -29 0 -14 -7 -30 -15 -37 -8 -7 -15 -25 -15 -40 0 -15 -7 -33 -15 -40 -8 -7 -15 -23 -15 -37 0 -13 -7 -26 -15 -29 -8 -4 -15 -16 -15 -28 0 -11 -7 -30 -15 -40 -8 -11 -15 -32 -15 -47 0 -15 -7 -29 -15 -33 -8 -3 -15 -17 -15 -31 0 -14 -7 -28 -15 -31 -9 -4 -15 -19 -15 -39 0 -18 -7 -38 -15 -45 -8 -7 -15 -22 -15 -33 0 -11 -8 -26 -17 -33 -15 -11 14 -13 182 -14 l200 0 18 31 c9 17 17 41 17 54 0 12 7 25 15 29 8 3 15 16 15 29 0 14 7 30 15 37 8 7 15 20 15 30 0 10 7 23 15 30 8 7 15 27 15 45 0 20 6 35 15 39 8 3 15 16 15 29 0 14 7 30 15 37 8 7 15 26 15 42 0 16 6 31 15 34 8 4 15 18 15 34 0 16 7 30 15 34 8 3 15 17 15 31 0 14 7 28 15 31 9 4 15 19 15 39 0 18 7 38 15 45 8 7 15 23 15 35 0 13 7 25 15 29 8 3 15 16 15 29 0 14 7 30 15 37 8 7 15 23 15 36 0 12 7 29 15 38 8 8 15 26 15 39 0 14 7 27 15 31 8 3 15 16 15 29 0 14 7 30 15 37 8 7 15 25 15 40 0 15 7 33 15 40 8 7 15 23 15 35 0 13 7 25 15 29 8 3 15 16 15 29 0 14 7 30 15 37 8 7 15 27 15 45 0 20 6 35 15 39 8 3 15 14 15 24 0 11 7 25 15 32 8 7 15 23 15 35 0 12 7 28 15 35 8 7 15 25 15 40 0 15 7 33 15 40 8 7 15 23 15 37 0 13 7 26 15 29 8 4 15 17 15 30 0 14 7 27 15 30 9 4 15 19 15 39 0 18 7 38 15 45 8 7 15 23 15 35 0 13 7 25 15 29 8 3 15 16 15 29 0 14 7 30 15 37 8 7 15 26 15 42 0 16 6 31 15 34 9 4 15 19 15 35 0 17 6 32 15 35 8 4 15 16 15 29 0 12 7 28 15 35 8 7 15 27 15 45 0 20 6 35 15 39 8 3 15 17 15 31 0 14 7 28 15 31 8 4 15 16 15 29 0 12 7 28 15 35 8 7 15 26 15 42 0 16 6 31 15 34 9 4 15 19 15 35 0 17 6 32 15 35 8 4 15 16 15 29 0 12 7 28 15 35 8 7 15 26 15 42 0 16 6 31 15 34 9 4 15 19 15 35 0 17 6 32 15 35 8 4 15 18 15 34 0 16 7 30 15 34 9 3 15 18 15 40 0 21 6 36 15 40 8 3 15 17 15 31 0 14 7 28 15 31 8 4 15 16 15 29 0 12 7 28 15 35 8 7 15 27 15 45 0 21 6 35 16 39 15 6 17 47 2 46 -5 0 -93 0 -198 0 l-190 0 0 -24 c0 -13 -7 -26 -15 -30 -8 -3 -15 -17 -15 -31 0 -14 -7 -28 -15 -31 -8 -4 -15 -17 -15 -30 0 -14 -7 -27 -15 -30 -10 -4 -15 -20 -15 -44 0 -24 -5 -40 -15 -44 -8 -3 -15 -16 -15 -30 0 -13 -7 -26 -15 -30 -8 -3 -15 -17 -15 -31 0 -14 -7 -28 -15 -31 -10 -4 -15 -20 -15 -45 0 -26 -5 -42 -15 -45 -8 -4 -15 -17 -15 -30 0 -14 -7 -27 -15 -30 -8 -4 -15 -18 -15 -34 0 -16 -7 -30 -15 -34 -9 -3 -15 -18 -15 -40 0 -21 -6 -36 -15 -40 -8 -3 -15 -16 -15 -29 0 -14 -7 -30 -15 -37 -8 -7 -15 -20 -15 -30 0 -10 -7 -23 -15 -30 -8 -7 -15 -27 -15 -45 0 -20 -6 -35 -15 -39 -8 -3 -15 -17 -15 -31 0 -14 -7 -28 -15 -31 -8 -4 -15 -18 -15 -34 0 -16 -7 -35 -15 -44 -8 -8 -15 -23 -15 -34 0 -11 -7 -25 -15 -32 -8 -7 -15 -23 -15 -35 0 -12 -7 -28 -15 -35 -8 -7 -15 -26 -15 -42 0 -16 -6 -31 -15 -34 -8 -4 -15 -18 -15 -34 0 -16 -7 -30 -15 -34 -8 -3 -15 -16 -15 -29 0 -14 -7 -30 -15 -37 -8 -7 -15 -25 -15 -40 0 -15 -7 -33 -15 -40 -8 -7 -15 -23 -15 -37 0 -13 -7 -26 -15 -29 -8 -4 -15 -16 -15 -28 0 -12 -7 -31 -15 -42 -8 -10 -15 -31 -15 -45 0 -15 -7 -29 -15 -33 -8 -3 -15 -16 -15 -29 0 -14 -7 -30 -15 -37 -8 -7 -15 -20 -15 -30 0 -10 -6 -23 -14 -30 -8 -6 -16 -25 -18 -42 -6 -60 -69 -64 -76 -5 -2 14 -10 31 -18 37 -8 7 -14 20 -14 29 0 9 -7 25 -15 35 -8 11 -15 30 -15 42 0 12 -7 24 -15 28 -8 3 -15 16 -15 30 0 13 -7 26 -15 30 -8 3 -15 17 -15 31 0 14 -7 28 -15 31 -8 4 -15 18 -15 34 0 15 -7 33 -15 40 -8 7 -15 20 -15 30 0 10 -7 23 -15 30 -8 7 -15 23 -15 35 0 12 -7 28 -15 35 -8 7 -15 23 -15 37 0 13 -7 26 -15 29 -8 4 -15 16 -15 29 0 13 -7 25 -15 29 -8 3 -15 17 -15 31 0 14 -7 28 -15 31 -9 4 -15 19 -15 35 0 16 -4 29 -10 29 -5 0 -13 12 -16 27 -4 15 -13 34 -21 41 -7 7 -13 24 -13 36 0 13 -7 29 -15 36 -8 7 -15 23 -15 37 0 13 -7 26 -15 29 -8 4 -15 16 -15 29 0 13 -7 25 -15 29 -8 3 -15 16 -15 29 0 14 -7 30 -15 37 -8 7 -15 21 -15 32 0 11 -7 26 -15 34 -8 9 -15 24 -15 34 0 10 -7 20 -15 24 -9 3 -15 18 -15 34 0 16 -7 35 -15 42 -8 7 -15 23 -15 35 0 13 -7 25 -15 29 -8 3 -15 16 -15 30 0 13 -7 26 -15 30 -9 3 -15 18 -15 35 0 16 -6 31 -15 35 -8 3 -15 16 -15 29 0 14 -7 30 -15 37 -8 7 -15 20 -15 29 0 9 -7 25 -15 35 -8 11 -15 30 -15 42 0 12 -7 24 -15 28 -8 3 -15 16 -15 30 0 13 -7 26 -15 30 -8 3 -15 16 -15 30 0 13 -7 26 -15 30 -8 3 -15 17 -15 31 l0 25 -184 0 c-101 0 -191 3 -200 6 -12 5 -16 0 -16 -19z"/> <path d="M2670 1706 l0 -1526 180 2 180 3 2 1518 3 1517 -160 0 c-88 0 -170 3 -182 6 l-23 6 0 -1526z"/> </g> </svg> 